<svg width="32" height="32" viewBox="0 0 32 32" fill="none" xmlns="http://www.w3.org/2000/svg">
<path d="M16.0067 6.48738C19.2125 6.48738 19.592 6.50163 20.8526 6.55787C22.0246 6.60962 22.6568 6.80609 23.079 6.97032C23.6369 7.18629 24.0396 7.44875 24.4566 7.8657C24.8788 8.28789 25.136 8.68609 25.3565 9.24402C25.5207 9.66621 25.7172 10.3029 25.7689 11.4705C25.8251 12.7363 25.8394 13.1157 25.8394 16.3171C25.8394 19.5184 25.8251 19.9023 25.7689 21.1637C25.7172 22.3358 25.5207 22.9679 25.3565 23.3901C25.1405 23.9481 24.8788 24.3507 24.4611 24.7677C24.0389 25.1899 23.6407 25.4471 23.0835 25.6676C22.6613 25.8318 22.0239 26.0283 20.8571 26.08C19.5912 26.1363 19.2118 26.1505 16.0104 26.1505C12.8091 26.1505 12.4252 26.1363 11.1638 26.08C9.99175 26.0283 9.35959 25.8318 8.93739 25.6676C8.37947 25.4516 7.97677 25.1899 7.55908 24.7722C7.13688 24.35 6.87967 23.9518 6.6592 23.3946C6.49497 22.9724 6.2985 22.335 6.24675 21.1682C6.19051 19.9023 6.17626 19.5229 6.17626 16.3216C6.17626 13.1202 6.19051 12.7363 6.24675 11.475C6.2985 10.3029 6.49497 9.67071 6.6592 9.24851C6.87517 8.69059 7.13763 8.28789 7.55458 7.8702C7.97677 7.448 8.37497 7.19079 8.93289 6.97032C9.35509 6.80609 9.99175 6.60962 11.1593 6.55787C12.4199 6.50163 12.8001 6.48738 16.0059 6.48738H16.0067ZM16.0067 4.32692C12.7491 4.32692 12.3419 4.34117 11.0619 4.39741C9.78703 4.45365 8.9104 4.65988 8.1515 4.95534C7.3596 5.2643 6.68919 5.67224 6.02403 6.34265C5.35362 7.00856 4.94568 7.67822 4.63672 8.46562C4.34126 9.22977 4.13503 10.1012 4.07879 11.376C4.02255 12.6606 4.0083 13.0678 4.0083 16.3253C4.0083 19.5829 4.02255 19.9901 4.07879 21.2702C4.13503 22.545 4.34126 23.4216 4.63672 24.1805C4.94643 24.9724 5.35362 25.6428 6.02403 26.308C6.68919 26.9731 7.3596 27.3863 8.147 27.6908C8.91115 27.9863 9.78253 28.1925 11.0574 28.2487C12.3367 28.305 12.7446 28.3192 16.0022 28.3192C19.2598 28.3192 19.6677 28.305 20.947 28.2487C22.2219 28.1925 23.0985 27.9863 23.8574 27.6908C24.6448 27.3863 25.3152 26.9739 25.9804 26.308C26.6455 25.6421 27.0587 24.9724 27.3632 24.185C27.6586 23.4209 27.8649 22.5495 27.9211 21.2747C27.9774 19.9953 27.9916 19.5874 27.9916 16.3298C27.9916 13.0723 27.9774 12.6651 27.9211 11.385C27.8649 10.1101 27.6586 9.23352 27.3632 8.47462C27.0677 7.67747 26.6598 7.00781 25.9901 6.3419C25.325 5.67674 24.6545 5.26355 23.8672 4.95909C23.103 4.66363 22.2316 4.4574 20.9568 4.40116C19.673 4.34042 19.265 4.32617 16.0074 4.32617L16.0067 4.32692Z" fill="#4C2613"/>
<path d="M16.0062 10.1621C12.6039 10.1621 9.84277 12.9225 9.84277 16.3255C9.84277 19.7286 12.6032 22.489 16.0062 22.489C19.4092 22.489 22.1696 19.7286 22.1696 16.3255C22.1696 12.9232 19.4092 10.1621 16.0062 10.1621ZM16.0062 20.3233C13.7985 20.3233 12.0085 18.5332 12.0085 16.3255C12.0085 14.1178 13.7985 12.3278 16.0062 12.3278C18.2139 12.3278 20.0039 14.1178 20.0039 16.3255C20.0039 18.5332 18.2139 20.3233 16.0062 20.3233Z" fill="#4C2613"/>
<path d="M23.8513 9.91953C23.8513 10.7144 23.2071 11.3586 22.4122 11.3586C21.6173 11.3586 20.9731 10.7144 20.9731 9.91953C20.9731 9.12463 21.6173 8.48047 22.4122 8.48047C23.2071 8.48047 23.8513 9.12463 23.8513 9.91953Z" fill="#4C2613"/>
</svg>
