<svg width="26" height="26" viewBox="0 0 26 26" fill="none" xmlns="http://www.w3.org/2000/svg">
<path d="M1.93767 23.5344C1.49078 23.7609 1.05611 23.7431 0.633667 23.4811C0.211222 23.2191 0 22.8286 0 22.3098V3.70976C0 3.37842 0.0953334 3.08298 0.286 2.82342C0.476445 2.56409 0.726333 2.37354 1.03567 2.25176L7.07833 0.126424C7.32722 0.0322022 7.57867 -0.00935301 7.83267 0.0017581C8.08667 0.0128692 8.33811 0.0544244 8.587 0.126424L16.5993 2.93576L22.461 0.585091C22.9079 0.380869 23.3439 0.404202 23.769 0.655091C24.1941 0.90598 24.4067 1.29087 24.4067 1.80976V13.1864C24.4067 13.518 24.2976 13.7859 24.0793 13.9901C23.8613 14.1945 23.5892 14.2968 23.263 14.2968C22.937 14.2968 22.6662 14.189 22.4507 13.9734C22.2353 13.7581 22.1277 13.4846 22.1277 13.1531V3.04676L17.466 4.82276V10.4364C17.466 10.7253 17.3716 10.9642 17.1827 11.1531C16.9938 11.342 16.7549 11.4364 16.466 11.4364C16.1771 11.4364 15.9382 11.342 15.7493 11.1531C15.5604 10.9642 15.466 10.7253 15.466 10.4364V4.82276L8.93267 2.62276V19.5814C8.93267 19.9352 8.83733 20.2571 8.64667 20.5471C8.45622 20.8371 8.19789 21.0456 7.87167 21.1728L1.93767 23.5344ZM2.271 21.0648L6.93267 19.2888V2.62276L2.271 4.16542V21.0648ZM18.135 20.9221C18.9421 20.9221 19.6227 20.6412 20.1767 20.0794C20.7304 19.5174 21.0047 18.8461 20.9993 18.0654C20.994 17.2583 20.7171 16.5791 20.1687 16.0278C19.62 15.4766 18.9421 15.2011 18.135 15.2011C17.3277 15.2011 16.6497 15.4766 16.101 16.0278C15.5526 16.5791 15.2783 17.2583 15.2783 18.0654C15.2783 18.8728 15.5526 19.5506 16.101 20.0991C16.6497 20.6478 17.3277 20.9221 18.135 20.9221ZM18.135 23.2011C16.7199 23.2011 15.5102 22.6989 14.506 21.6944C13.5016 20.6902 12.9993 19.4805 12.9993 18.0654C12.9993 16.6283 13.5016 15.4118 14.506 14.4158C15.5102 13.42 16.7199 12.9221 18.135 12.9221C19.5721 12.9221 20.7886 13.42 21.7843 14.4158C22.7803 15.4118 23.2783 16.6283 23.2783 18.0654C23.2783 18.5661 23.2101 19.0431 23.0737 19.4964C22.9372 19.9498 22.741 20.3738 22.485 20.7684L25.1303 23.4221C25.3348 23.6265 25.4383 23.8695 25.441 24.1511C25.4437 24.4326 25.3401 24.6756 25.1303 24.8801C24.9314 25.0843 24.6911 25.1864 24.4093 25.1864C24.1278 25.1864 23.8822 25.0843 23.6727 24.8801L21.035 22.2838C20.6128 22.5895 20.1628 22.8189 19.685 22.9718C19.2072 23.1246 18.6906 23.2011 18.135 23.2011Z" fill="black"/>
</svg>
