<svg width="24" height="24" viewBox="0 0 24 24" fill="none" xmlns="http://www.w3.org/2000/svg">
<path d="M12.0001 5.9995V15.4593L15.8413 17.7805L14.8093 13.432L18.1876 10.4917L13.7333 10.1038L12.0001 5.9995ZM12.0001 17.4425L7.33807 20.2542C7.18091 20.3496 7.01732 20.3921 6.84732 20.3818C6.67749 20.3714 6.52624 20.3186 6.39357 20.2232C6.26091 20.1281 6.16241 20.0048 6.09807 19.8535C6.03391 19.7023 6.02041 19.5314 6.05757 19.3407L7.28857 14.0288L3.17682 10.4417C3.02749 10.3132 2.93632 10.1682 2.90332 10.0065C2.87032 9.845 2.87449 9.68758 2.91582 9.53425C2.95316 9.38092 3.03916 9.2515 3.17382 9.146C3.30832 9.04033 3.47091 8.97917 3.66157 8.9625L9.09832 8.4875L11.2043 3.4695C11.279 3.29567 11.392 3.16625 11.5433 3.08125C11.6945 2.99625 11.8467 2.95375 12.0001 2.95375C12.1534 2.95375 12.3057 2.99625 12.4568 3.08125C12.6082 3.16625 12.7212 3.29567 12.7958 3.4695L14.9018 8.4875L20.3446 8.9625C20.5312 8.97917 20.6918 9.04033 20.8263 9.146C20.961 9.2515 21.047 9.38092 21.0843 9.53425C21.1257 9.68758 21.1298 9.845 21.0968 10.0065C21.0638 10.1682 20.9727 10.3132 20.8233 10.4417L16.7116 14.0288L17.9426 19.3407C17.9797 19.5314 17.9662 19.7023 17.9021 19.8535C17.8377 20.0048 17.7392 20.1281 17.6066 20.2232C17.4739 20.3186 17.3227 20.3714 17.1528 20.3818C16.9828 20.3921 16.8192 20.3496 16.6621 20.2542L12.0001 17.4425Z" fill="black"/>
</svg>
