<svg width="24" height="24" viewBox="0 0 24 24" fill="none" xmlns="http://www.w3.org/2000/svg">
<path d="M12.0061 16.4135L7.77685 19.6357C7.60685 19.7644 7.43485 19.8204 7.26085 19.8037C7.08701 19.7871 6.92543 19.7311 6.7761 19.6357C6.62693 19.5406 6.52018 19.4112 6.45585 19.2475C6.39151 19.084 6.38635 18.9006 6.44035 18.6972L8.05435 13.4417L3.9061 10.4575C3.7361 10.3417 3.62635 10.1956 3.57685 10.0192C3.52718 9.84308 3.53135 9.67633 3.58935 9.51899C3.64718 9.36583 3.74143 9.22808 3.8721 9.10574C4.00276 8.98341 4.17568 8.92224 4.39085 8.92224H9.53435L11.1793 3.44174C11.2333 3.23458 11.3402 3.07916 11.4998 2.97549C11.6595 2.87183 11.8263 2.81999 12.0001 2.81999C12.1739 2.81999 12.3407 2.87183 12.5003 2.97549C12.66 3.07916 12.7688 3.23458 12.8268 3.44174L14.4658 8.92224H19.6153C19.8265 8.92224 19.9974 8.98341 20.1281 9.10574C20.2588 9.22808 20.353 9.36583 20.4108 9.51899C20.4688 9.67633 20.473 9.84308 20.4233 10.0192C20.3738 10.1956 20.2641 10.3417 20.0941 10.4575L15.9458 13.4417L17.5598 18.6912C17.6138 18.8986 17.6087 19.083 17.5443 19.2445C17.48 19.4062 17.3733 19.5347 17.2241 19.63C17.0748 19.7292 16.9141 19.7871 16.7421 19.8037C16.5703 19.8204 16.3993 19.7625 16.2293 19.63L12.0061 16.4135Z" fill="black"/>
</svg>
