<svg width="32" height="32" viewBox="0 0 32 32" fill="none" xmlns="http://www.w3.org/2000/svg">
<path d="M11.4333 22.5667L16 19.1L20.5666 22.5667L18.7333 16.8L22.9333 14.0667H17.9L16 8.29999L14.1 14.0667H9.06663L13.2666 16.8L11.4333 22.5667ZM16.008 21.8847L10.369 26.181C10.1423 26.3525 9.91297 26.4272 9.68097 26.405C9.44919 26.3828 9.23375 26.3081 9.03463 26.181C8.83575 26.0541 8.69341 25.8815 8.60763 25.6633C8.52186 25.4453 8.51497 25.2008 8.58697 24.9297L10.739 17.9223L5.20797 13.9433C4.9813 13.7889 4.83497 13.5941 4.76897 13.359C4.70274 13.1241 4.7083 12.9018 4.78563 12.692C4.86274 12.4878 4.98841 12.3041 5.16263 12.141C5.33686 11.9779 5.56741 11.8963 5.8543 11.8963H12.7123L14.9056 4.58899C14.9776 4.31277 15.1201 4.10555 15.333 3.96733C15.5459 3.82911 15.7682 3.75999 16 3.75999C16.2317 3.75999 16.4541 3.82911 16.667 3.96733C16.8799 4.10555 17.025 4.31277 17.1023 4.58899L19.2876 11.8963H26.1536C26.4352 11.8963 26.6631 11.9779 26.8373 12.141C27.0115 12.3041 27.1372 12.4878 27.2143 12.692C27.2916 12.9018 27.2972 13.1241 27.231 13.359C27.165 13.5941 27.0186 13.7889 26.792 13.9433L21.261 17.9223L23.413 24.9217C23.485 25.1981 23.4781 25.444 23.3923 25.6593C23.3065 25.8749 23.1642 26.0462 22.9653 26.1733C22.7662 26.3055 22.552 26.3828 22.3226 26.405C22.0935 26.4272 21.8656 26.35 21.639 26.1733L16.008 21.8847Z" fill="black"/>
</svg>
